<svg xmlns="http://www.w3.org/2000/svg" width="1024" height="1024" viewBox="0 0 1024 1024"><defs>
  <linearGradient id="deep" x1="0" y1="0" x2="1" y2="1"><stop offset="0" stop-color="#3b82f6"/><stop offset="0.55" stop-color="#4f46e5"/><stop offset="1" stop-color="#7c3aed"/></linearGradient>
  <linearGradient id="sunset" x1="0" y1="0" x2="1" y2="1"><stop offset="0" stop-color="#2563eb"/><stop offset="0.5" stop-color="#db2777"/><stop offset="1" stop-color="#f97316"/></linearGradient>
  <linearGradient id="night" x1="0" y1="0" x2="0" y2="1"><stop offset="0" stop-color="#2a2d34"/><stop offset="1" stop-color="#0b0c0f"/></linearGradient>
  <linearGradient id="white" x1="0" y1="0" x2="0" y2="1"><stop offset="0" stop-color="#ffffff"/><stop offset="1" stop-color="#e9edf5"/></linearGradient>
  <linearGradient id="sparkg" x1="0" y1="0" x2="1" y2="1"><stop offset="0" stop-color="#2563eb"/><stop offset="1" stop-color="#7c3aed"/></linearGradient>
  <linearGradient id="sparkw" x1="0" y1="0" x2="1" y2="1"><stop offset="0" stop-color="#2563eb"/><stop offset="0.5" stop-color="#db2777"/><stop offset="1" stop-color="#f97316"/></linearGradient>
  <filter id="shadow" x="-20%" y="-20%" width="140%" height="160%"><feDropShadow dx="0" dy="18" stdDeviation="22" flood-color="#0b1440" flood-opacity="0.35"/></filter>
  <filter id="soft" x="-20%" y="-20%" width="140%" height="160%"><feDropShadow dx="0" dy="10" stdDeviation="14" flood-color="#000" flood-opacity="0.25"/></filter>
</defs><rect x="100" y="100" width="824" height="824" rx="185" fill="url(#deep)"/><path d="M262 362 a44 44 0 0 1 44 -44 H302 v-30 a36 36 0 0 1 36 -36 h98 a36 36 0 0 1 36 36 v30 H738 a44 44 0 0 1 44 44 V634 a44 44 0 0 1 -44 44 H306 a44 44 0 0 1 -44 -44z" fill="#ffffff" fill-opacity="0.22" transform="rotate(-9 522 498)"/><path d="M236 396 a44 44 0 0 1 44 -44 H440 v-30 a36 36 0 0 1 36 -36 h98 a36 36 0 0 1 36 36 v30 H732 a44 44 0 0 1 44 44 V688 a44 44 0 0 1 -44 44 H280 a44 44 0 0 1 -44 -44z" fill="#ffffff" fill-opacity="0.38" transform="rotate(-3 506 542)"/><path d="M212 444 a44 44 0 0 1 44 -44 H578 v-30 a36 36 0 0 1 36 -36 h118 a36 36 0 0 1 36 36 v30 H768 a44 44 0 0 1 44 44 V756 a44 44 0 0 1 -44 44 H256 a44 44 0 0 1 -44 -44z" fill="url(#white)" filter="url(#shadow)"/><path d="M512 502 C527.4 596.6 527.4 596.6 622 612 C527.4 627.4 527.4 627.4 512 722 C496.6 627.4 496.6 627.4 402 612 C496.6 596.6 496.6 596.6 512 502z" fill="url(#sparkg)"/><path d="M640 486 C643.64 508.36 643.64 508.36 666 512 C643.64 515.64 643.64 515.64 640 538 C636.36 515.64 636.36 515.64 614 512 C636.36 508.36 636.36 508.36 640 486z" fill="#7c3aed"/></svg>